<svg width="104" height="104" viewBox="0 0 104 104" fill="none" xmlns="http://www.w3.org/2000/svg">
<path fill-rule="evenodd" clip-rule="evenodd" d="M52.0002 6.5C52.8622 6.5 53.6888 6.84241 54.2983 7.4519C54.9078 8.0614 55.2502 8.88805 55.2502 9.75V86.4045L75.6992 65.949C76.3095 65.3387 77.1372 64.9959 78.0002 64.9959C78.8632 64.9959 79.6909 65.3387 80.3012 65.949C80.9115 66.5593 81.2543 67.387 81.2543 68.25C81.2543 69.113 80.9115 69.9407 80.3012 70.551L54.3012 96.551C53.9993 96.8537 53.6407 97.0938 53.2458 97.2576C52.851 97.4215 52.4277 97.5058 52.0002 97.5058C51.5727 97.5058 51.1494 97.4215 50.7546 97.2576C50.3597 97.0938 50.0011 96.8537 49.6992 96.551L23.6992 70.551C23.0889 69.9407 22.7461 69.113 22.7461 68.25C22.7461 67.387 23.0889 66.5593 23.6992 65.949C24.3095 65.3387 25.1372 64.9959 26.0002 64.9959C26.8632 64.9959 27.6909 65.3387 28.3012 65.949L48.7502 86.4045V9.75C48.7502 8.88805 49.0926 8.0614 49.7021 7.4519C50.3116 6.84241 51.1382 6.5 52.0002 6.5Z" fill="#F7B927"/>
</svg>
