<svg width="345" height="252" viewBox="0 0 345 252" fill="none" xmlns="http://www.w3.org/2000/svg">
<path d="M219.545 94.5H304.07L251.85 31.5H219.545V94.5ZM258.75 228.375C264.866 228.375 270.355 226.327 275.059 221.602C279.764 216.877 282.273 211.365 282.273 204.75C282.273 198.608 279.764 193.095 275.059 188.37C270.355 183.645 264.866 181.125 258.75 181.125C252.164 181.125 246.675 183.645 241.97 188.37C237.266 193.095 235.227 198.608 235.227 204.75C235.227 211.365 237.266 216.877 241.97 221.602C246.675 226.327 252.164 228.375 258.75 228.375ZM78.4091 228.375C85.3091 228.375 90.9545 226.327 95.3455 221.602C99.7364 216.877 101.932 211.365 101.932 204.75C101.932 198.608 99.7364 193.095 95.3455 188.37C90.9545 183.645 85.3091 181.125 78.4091 181.125C71.5091 181.125 65.8636 183.645 61.4727 188.37C57.0818 193.095 54.8864 198.608 54.8864 204.75C54.8864 211.365 57.0818 216.877 61.4727 221.602C65.8636 226.327 71.5091 228.375 78.4091 228.375ZM266.591 0L345 94.5V204.75H305.795C305.795 217.822 300.934 228.847 291.525 238.297C282.273 247.59 271.295 252 258.75 252C245.734 252 234.757 247.59 225.505 238.297C216.095 228.847 211.705 217.822 211.705 204.75H125.455C125.455 217.822 120.75 228.847 111.498 238.297C101.932 247.59 91.1114 252 78.4091 252C65.7068 252 54.8864 247.59 45.3205 238.297C36.0682 228.847 31.3636 217.822 31.3636 204.75H0V141.75H128.434L31.3636 64.7325V110.25H0V15.75H15.6818L188.182 111.195V0H266.591Z" fill="#F7B927"/>
</svg>
